<svg xmlns="http://www.w3.org/2000/svg" width="24" height="24" viewBox="0 0 24 24" fill="none">
<path d="M12.0084 0C15.7041 0 18.8863 1.5799 21.5548 4.73971C23.1849 7.01745 24 9.46267 24 12.0754C24 13.4934 23.7209 14.889 23.1626 16.2624C22.6378 16.8988 22.0349 17.217 21.3538 17.217C20.4717 17.217 19.8018 16.7202 19.344 15.7264C19.2659 15.3468 19.2268 15.1235 19.2268 15.0565C19.5506 13.8172 19.7125 12.8904 19.7125 12.2763V11.7237C19.7125 9.45708 18.6909 7.48639 16.6476 5.81158C15.2519 4.79553 13.7837 4.28751 12.2428 4.28751H11.8744C9.22819 4.28751 7.07886 5.50454 5.42638 7.93859C4.66713 9.17795 4.28751 10.5178 4.28751 11.9581V12.0419C4.28751 15.0565 5.75017 17.3678 8.67551 18.9756C9.74738 19.4669 10.7913 19.7125 11.8074 19.7125H12.3266C12.4717 19.7125 12.656 19.6957 12.8793 19.6622C13.471 19.6622 14.0628 20.014 14.6546 20.7174C14.8332 21.1193 14.9225 21.4487 14.9225 21.7055V21.9065C14.9225 22.8779 14.3364 23.5478 13.164 23.9163C12.6057 23.9721 12.2205 24 12.0084 24C8.46895 24 5.3873 22.5429 2.76343 19.6288C0.921145 17.2505 0 14.7048 0 11.9916C0 8.77599 1.25611 5.87299 3.76832 3.28262C6.2582 1.09421 9.00488 0 12.0084 0ZM18.4229 17.3845C19.3496 17.3845 20.0307 17.9428 20.4662 19.0593L20.5164 19.545C20.5164 20.5164 19.9525 21.1975 18.8248 21.5883C18.5904 21.6218 18.4452 21.6497 18.3894 21.672C17.4962 21.672 16.8262 21.1752 16.3796 20.1814C16.3015 19.9693 16.2624 19.7683 16.2624 19.5785V19.4278C16.2624 18.4787 16.8374 17.8088 17.9874 17.418C18.1661 17.3957 18.3112 17.3845 18.4229 17.3845Z" fill="#15131E"/>
<mask id="mask0_37_95" style="mask-type:alpha" maskUnits="userSpaceOnUse" x="0" y="0" width="24" height="24">
<path d="M12.0084 0C15.7041 0 18.8863 1.5799 21.5548 4.73971C23.1849 7.01745 24 9.46267 24 12.0754C24 13.4934 23.7209 14.889 23.1626 16.2624C22.6378 16.8988 22.0349 17.217 21.3538 17.217C20.4717 17.217 19.8018 16.7202 19.344 15.7264C19.2659 15.3468 19.2268 15.1235 19.2268 15.0565C19.5506 13.8172 19.7125 12.8904 19.7125 12.2763V11.7237C19.7125 9.45708 18.6909 7.48639 16.6476 5.81158C15.2519 4.79553 13.7837 4.28751 12.2428 4.28751H11.8744C9.22819 4.28751 7.07886 5.50454 5.42638 7.93859C4.66713 9.17795 4.28751 10.5178 4.28751 11.9581V12.0419C4.28751 15.0565 5.75017 17.3678 8.67551 18.9756C9.74738 19.4669 10.7913 19.7125 11.8074 19.7125H12.3266C12.4717 19.7125 12.656 19.6957 12.8793 19.6622C13.471 19.6622 14.0628 20.014 14.6546 20.7174C14.8332 21.1193 14.9225 21.4487 14.9225 21.7055V21.9065C14.9225 22.8779 14.3364 23.5478 13.164 23.9163C12.6057 23.9721 12.2205 24 12.0084 24C8.46895 24 5.3873 22.5429 2.76343 19.6288C0.921145 17.2505 0 14.7048 0 11.9916C0 8.77599 1.25611 5.87299 3.76832 3.28262C6.2582 1.09421 9.00488 0 12.0084 0ZM18.4229 17.3845C19.3496 17.3845 20.0307 17.9428 20.4662 19.0593L20.5164 19.545C20.5164 20.5164 19.9525 21.1975 18.8248 21.5883C18.5904 21.6218 18.4452 21.6497 18.3894 21.672C17.4962 21.672 16.8262 21.1752 16.3796 20.1814C16.3015 19.9693 16.2624 19.7683 16.2624 19.5785V19.4278C16.2624 18.4787 16.8374 17.8088 17.9874 17.418C18.1661 17.3957 18.3112 17.3845 18.4229 17.3845Z" fill="#0F0F0F"/>
</mask>
<g mask="url(#mask0_37_95)">
<rect x="15.8766" y="17.1997" width="4.70788" height="4.70788" rx="2.35394" fill="#FF7272"/>
</g>
</svg>