<svg width="146" height="50" viewBox="0 0 146 50" fill="none" xmlns="http://www.w3.org/2000/svg">
<g clip-path="url(#clip0_1118_2622)">
<path d="M119.673 9.03122C120.537 9.03122 121.2 9.51966 121.66 10.4965L121.812 11.1703C121.812 12.0573 121.279 12.7872 120.212 13.3598C118 15.0217 116.894 17.1607 116.894 19.777C116.894 22.4381 118.09 24.6165 120.481 26.312C121.806 27.098 123.126 27.491 124.439 27.491H124.877C126.191 27.491 127.606 27.0587 129.122 26.1941C129.358 26.1379 129.571 26.1099 129.762 26.1099C130.705 26.1099 131.379 26.6601 131.783 27.7605C131.839 27.985 131.867 28.1647 131.867 28.2994C131.867 29.8714 129.958 30.9999 126.141 31.6848C125.59 31.7634 125.091 31.8027 124.642 31.8027C121.396 31.8027 118.505 30.5508 115.967 28.0468C113.733 25.5877 112.616 22.8704 112.616 19.8949V19.5748C112.616 16.2849 113.963 13.3374 116.658 10.7323C117.994 9.59826 118.999 9.03122 119.673 9.03122Z" fill="#15131E"/>
<path d="M127.101 9.23319C126.641 8.18894 125.956 7.66681 125.046 7.66681C124.968 7.66681 124.737 7.70611 124.356 7.78471C123.367 8.26754 122.873 8.94125 122.873 9.80585C122.896 10.0192 122.935 10.2325 122.991 10.4459C123.44 11.4677 124.114 11.9786 125.012 11.9786C125.293 11.9561 125.495 11.9168 125.619 11.8607C126.663 11.4677 127.185 10.794 127.185 9.83954C127.185 9.78339 127.157 9.58128 127.101 9.23319Z" fill="#FF7272"/>
<path d="M103.929 7.66681H103.963C104.974 7.66681 105.675 8.21701 106.068 9.31741C106.125 9.58689 106.153 9.85638 106.153 10.1259V29.3436C106.153 30.6124 105.597 31.404 104.485 31.7184C104.373 31.7745 104.199 31.8026 103.963 31.8026H103.929C103.054 31.8026 102.391 31.3029 101.942 30.3036C101.863 30.0229 101.824 29.7815 101.824 29.5793V9.89006C101.824 8.85704 102.363 8.14402 103.441 7.75102C103.632 7.69488 103.795 7.66681 103.929 7.66681Z" fill="#15131E"/>
<path d="M75.3519 7.66681C76.1154 7.66681 76.9632 8.30122 77.8951 9.57005L90.5273 23.8865H90.6115V9.77216C90.6115 8.86265 91.1224 8.20017 92.1442 7.78471C92.2677 7.72857 92.4698 7.68927 92.7505 7.66681C93.7162 7.66681 94.418 8.23385 94.8559 9.36794L94.8896 9.83954V29.6299C94.8896 30.6292 94.3394 31.3254 93.239 31.7184L92.7505 31.8026C91.9758 31.8026 91.1954 31.2636 90.4094 30.1857C82.2462 20.9446 77.9681 16.077 77.5751 15.5829H77.4572V21.7474C77.4572 22.904 76.8003 23.6338 75.4866 23.937H75.2845C74.2964 23.937 73.6058 23.37 73.2128 22.2359C73.1904 22.0899 73.1791 21.972 73.1791 21.8822V9.80585C73.1791 8.82897 73.7293 8.14402 74.8297 7.75102C75.0768 7.69488 75.2508 7.66681 75.3519 7.66681Z" fill="#15131E"/>
<path d="M77.2551 28.6193C76.7386 27.867 76.1323 27.4908 75.4361 27.4908C75.3575 27.4908 75.1722 27.5133 74.8803 27.5582C73.7687 27.9737 73.2129 28.6755 73.2129 29.6636C73.2129 29.6973 73.2578 29.8881 73.3476 30.2362C73.7743 31.2805 74.4424 31.8026 75.3519 31.8026C75.6438 31.7802 75.8459 31.7409 75.9582 31.6847C77.0137 31.2805 77.5415 30.6068 77.5415 29.6636C77.5415 29.3492 77.446 29.0011 77.2551 28.6193Z" fill="#FF7272"/>
<path d="M54.6061 31.8028C50.8895 31.8028 47.6893 30.2139 45.0057 27.0362C43.3663 24.7456 42.5466 22.2866 42.5466 19.6591C42.5466 18.233 42.8273 16.8295 43.3888 15.4484C43.9165 14.8083 44.5229 14.4883 45.2078 14.4883C46.0949 14.4883 46.7686 14.988 47.2289 15.9873C47.3075 16.3691 47.3468 16.5937 47.3468 16.661C47.0212 17.9074 46.8584 18.8394 46.8584 19.457L46.8584 20.0128C46.8584 22.2922 47.8858 24.274 49.9406 25.9583C51.3442 26.9801 52.8208 27.491 54.3703 27.491L54.7409 27.491C57.402 27.491 59.5635 26.2671 61.2254 23.8193C61.9889 22.5729 62.3707 21.2255 62.3707 19.777L62.3707 19.6928C62.3707 16.661 60.8997 14.3367 57.9578 12.7198C56.8799 12.2258 55.83 11.9787 54.8082 11.9787L54.2861 11.9787C54.1401 11.9787 53.9549 11.9956 53.7303 12.0293C53.1352 12.0293 52.5401 11.6756 51.9449 10.9682C51.7653 10.5639 51.6755 10.2327 51.6755 9.97444L51.6755 9.77232C51.6755 8.79544 52.265 8.12172 53.444 7.75118C54.0054 7.69504 54.3928 7.66697 54.6061 7.66697C58.1656 7.66697 61.2647 9.1323 63.9034 12.063C65.7561 14.4546 66.6824 17.0147 66.6824 19.7433C66.6824 22.9771 65.4192 25.8965 62.8928 28.5016C60.3888 30.7024 57.6266 31.8028 54.6061 31.8028Z" fill="#15131E"/>
<path d="M3.22828 7.66678H3.26197C4.27254 7.66678 4.97432 8.21698 5.36732 9.31738C5.42347 9.58686 5.45154 9.85635 5.45154 10.1258V29.3435C5.45154 30.6123 4.89572 31.404 3.78409 31.7184C3.67181 31.7745 3.49777 31.8026 3.26197 31.8026H3.22828C2.35245 31.8026 1.68997 31.3029 1.24082 30.3036C1.16222 30.0228 1.12292 29.7814 1.12292 29.5793V9.89003C1.12292 8.85701 1.6619 8.14399 2.73984 7.75099C2.93072 7.69485 3.09354 7.66678 3.22828 7.66678Z" fill="#15131E"/>
<path d="M23.9901 7.66681C27.7067 7.66681 30.9069 9.25565 33.5905 12.4333C35.2299 14.724 36.0496 17.183 36.0496 19.8105C36.0496 21.2365 35.7688 22.6401 35.2074 24.0212C34.6797 24.6612 34.0733 24.9813 33.3884 24.9813C32.5013 24.9813 31.8276 24.4816 31.3672 23.4822C31.2886 23.1005 31.2493 22.8759 31.2493 22.8085C31.575 21.5622 31.7378 20.6302 31.7378 20.0126V19.4568C31.7378 17.1774 30.7104 15.1956 28.6555 13.5113C27.252 12.4895 25.7754 11.9786 24.2259 11.9786H23.8553C21.1942 11.9786 19.0327 13.2025 17.3708 15.6503C16.6073 16.8967 16.2255 18.2441 16.2255 19.6926V19.7768C16.2255 22.8085 17.6965 25.1328 20.6384 26.7498C21.7163 27.2438 22.7662 27.4908 23.788 27.4908H24.3101C24.4561 27.4908 24.6413 27.474 24.8659 27.4403C25.461 27.4403 26.0561 27.794 26.6512 28.5014C26.8309 28.9056 26.9207 29.2369 26.9207 29.4951V29.6973C26.9207 30.6741 26.3312 31.3478 25.1522 31.7184C24.5908 31.7745 24.2034 31.8026 23.9901 31.8026C20.4306 31.8026 17.3315 30.3373 14.6928 27.4066C12.8401 25.0149 11.9138 22.4548 11.9138 19.7263C11.9138 16.4925 13.177 13.573 15.7034 10.968C18.2074 8.76721 20.9696 7.66681 23.9901 7.66681ZM30.4409 25.1497C31.3729 25.1497 32.0578 25.7111 32.4957 26.834L32.5462 27.3224C32.5462 28.2993 31.9792 28.9842 30.8451 29.3772C30.6093 29.4109 30.4633 29.439 30.4072 29.4614C29.5089 29.4614 28.8352 28.9618 28.3861 27.9624C28.3075 27.7491 28.2682 27.547 28.2682 27.3561V27.2045C28.2682 26.2501 28.8464 25.5764 30.003 25.1834C30.1826 25.1609 30.3286 25.1497 30.4409 25.1497Z" fill="#15131E"/>
<mask id="mask0_1118_2622" style="mask-type:alpha" maskUnits="userSpaceOnUse" x="11" y="7" width="26" height="25">
<path d="M23.9901 7.66681C27.7067 7.66681 30.9069 9.25565 33.5905 12.4333C35.2299 14.724 36.0496 17.183 36.0496 19.8105C36.0496 21.2365 35.7688 22.6401 35.2074 24.0212C34.6797 24.6612 34.0733 24.9813 33.3884 24.9813C32.5013 24.9813 31.8276 24.4816 31.3672 23.4822C31.2886 23.1005 31.2493 22.8759 31.2493 22.8085C31.575 21.5622 31.7378 20.6302 31.7378 20.0126V19.4568C31.7378 17.1774 30.7104 15.1956 28.6555 13.5113C27.252 12.4895 25.7754 11.9786 24.2259 11.9786H23.8553C21.1942 11.9786 19.0327 13.2025 17.3708 15.6503C16.6073 16.8967 16.2255 18.2441 16.2255 19.6926V19.7768C16.2255 22.8085 17.6965 25.1328 20.6384 26.7498C21.7163 27.2438 22.7662 27.4908 23.788 27.4908H24.3101C24.4561 27.4908 24.6413 27.474 24.8659 27.4403C25.461 27.4403 26.0561 27.794 26.6512 28.5014C26.8309 28.9056 26.9207 29.2369 26.9207 29.4951V29.6973C26.9207 30.6741 26.3312 31.3478 25.1522 31.7184C24.5908 31.7745 24.2034 31.8026 23.9901 31.8026C20.4306 31.8026 17.3315 30.3373 14.6928 27.4066C12.8401 25.0149 11.9138 22.4548 11.9138 19.7263C11.9138 16.4925 13.177 13.573 15.7034 10.968C18.2074 8.76721 20.9696 7.66681 23.9901 7.66681ZM30.4409 25.1497C31.3729 25.1497 32.0578 25.7111 32.4957 26.834L32.5462 27.3224C32.5462 28.2993 31.9792 28.9842 30.8451 29.3772C30.6093 29.4109 30.4633 29.439 30.4072 29.4614C29.5089 29.4614 28.8352 28.9618 28.3861 27.9624C28.3075 27.7491 28.2682 27.547 28.2682 27.3561V27.2045C28.2682 26.2501 28.8464 25.5764 30.003 25.1834C30.1826 25.1609 30.3286 25.1497 30.4409 25.1497Z" fill="#0F0F0F"/>
</mask>
<g mask="url(#mask0_1118_2622)">
<rect x="28.1572" y="25.0286" width="5.21429" height="5.21429" rx="2.45181" fill="#FF7272"/>
</g>
<path d="M3.6683 48.5428H1.03379V40.0057H3.78502C4.61317 40.0057 5.32182 40.1766 5.91097 40.5184C6.50012 40.8575 6.95171 41.3452 7.26574 41.9816C7.57977 42.6152 7.73679 43.3739 7.73679 44.2576C7.73679 45.1469 7.57838 45.9125 7.26157 46.5545C6.94477 47.1936 6.48345 47.6855 5.87762 48.0301C5.2718 48.3719 4.53536 48.5428 3.6683 48.5428ZM2.06759 47.6258H3.60161C4.30748 47.6258 4.89246 47.4896 5.35656 47.2173C5.82065 46.9449 6.16664 46.5572 6.39452 46.0542C6.6224 45.5512 6.73634 44.9524 6.73634 44.2576C6.73634 43.5684 6.62379 42.9751 6.39869 42.4776C6.17359 41.9774 5.83733 41.5939 5.38991 41.3271C4.94248 41.0576 4.38529 40.9228 3.71833 40.9228H2.06759V47.6258ZM27.3135 48.5428V40.0057H32.4658V40.9228H28.3473V43.8074H32.199V44.7245H28.3473V47.6258H32.5325V48.5428H27.3135ZM56.8405 42.14C56.7905 41.7176 56.5876 41.3897 56.2319 41.1562C55.8762 40.9228 55.4399 40.8061 54.923 40.8061C54.5451 40.8061 54.2144 40.8672 53.9309 40.9895C53.6502 41.1118 53.4307 41.2799 53.2723 41.4939C53.1166 41.7079 53.0388 41.951 53.0388 42.2234C53.0388 42.4512 53.093 42.6472 53.2014 42.8111C53.3126 42.9723 53.4543 43.1071 53.6266 43.2155C53.7989 43.3211 53.9795 43.4086 54.1685 43.4781C54.3575 43.5448 54.5312 43.599 54.6896 43.6407L55.5566 43.8741C55.7789 43.9325 56.0263 44.013 56.2986 44.1159C56.5737 44.2187 56.8364 44.359 57.0865 44.5369C57.3394 44.712 57.5478 44.9371 57.7118 45.2122C57.8757 45.4873 57.9577 45.825 57.9577 46.2251C57.9577 46.6865 57.8368 47.1033 57.595 47.4757C57.356 47.8481 57.0059 48.1441 56.5446 48.3636C56.086 48.5831 55.5288 48.6929 54.873 48.6929C54.2616 48.6929 53.7322 48.5943 53.2848 48.3969C52.8401 48.1996 52.49 47.9245 52.2343 47.5716C51.9814 47.2186 51.8383 46.8087 51.805 46.3419H52.8721C52.8999 46.6642 53.0083 46.931 53.1972 47.1422C53.389 47.3506 53.6308 47.5063 53.9226 47.6091C54.2171 47.7091 54.5339 47.7592 54.873 47.7592C55.2676 47.7592 55.6219 47.6952 55.936 47.5674C56.25 47.4368 56.4987 47.2562 56.6821 47.0255C56.8655 46.7921 56.9573 46.5197 56.9573 46.2085C56.9573 45.925 56.8781 45.6944 56.7196 45.5165C56.5612 45.3386 56.3528 45.1941 56.0944 45.083C55.8359 44.9718 55.5566 44.8745 55.2565 44.7912L54.206 44.491C53.5391 44.2993 53.011 44.0256 52.622 43.6698C52.2329 43.3141 52.0384 42.8486 52.0384 42.2734C52.0384 41.7954 52.1676 41.3785 52.4261 41.0228C52.6873 40.6643 53.0374 40.3864 53.4765 40.1891C53.9184 39.989 54.4117 39.889 54.9564 39.889C55.5066 39.889 55.9957 39.9876 56.4237 40.1849C56.8517 40.3795 57.1907 40.6463 57.4408 40.9853C57.6937 41.3243 57.8271 41.7092 57.841 42.14H56.8405ZM78.5338 40.0057V48.5428H77.5V40.0057H78.5338ZM104.285 42.6736C104.194 42.3929 104.073 42.1414 103.923 41.9191C103.775 41.694 103.599 41.5022 103.393 41.3438C103.19 41.1854 102.96 41.0645 102.701 40.9811C102.443 40.8978 102.159 40.8561 101.851 40.8561C101.345 40.8561 100.885 40.9867 100.471 41.2479C100.057 41.5092 99.7276 41.894 99.4831 42.4026C99.2385 42.9112 99.1162 43.5351 99.1162 44.2743C99.1162 45.0135 99.2399 45.6374 99.4872 46.1459C99.7346 46.6545 100.069 47.0394 100.492 47.3006C100.914 47.5619 101.389 47.6925 101.917 47.6925C102.407 47.6925 102.837 47.5883 103.21 47.3798C103.585 47.1686 103.877 46.8713 104.085 46.4878C104.296 46.1015 104.402 45.6471 104.402 45.1247L104.719 45.1914H102.151V44.2743H105.402V45.1914C105.402 45.8944 105.252 46.5058 104.952 47.0255C104.655 47.5452 104.244 47.9481 103.718 48.2344C103.196 48.5178 102.596 48.6596 101.917 48.6596C101.162 48.6596 100.497 48.4817 99.9249 48.126C99.3552 47.7703 98.9106 47.2645 98.591 46.6087C98.2742 45.9528 98.1158 45.1747 98.1158 44.2743C98.1158 43.599 98.2061 42.9918 98.3867 42.4526C98.5702 41.9107 98.8286 41.4494 99.1621 41.0687C99.4956 40.688 99.8902 40.3962 100.346 40.1933C100.802 39.9904 101.303 39.889 101.851 39.889C102.301 39.889 102.721 39.9571 103.11 40.0932C103.502 40.2266 103.85 40.417 104.156 40.6643C104.464 40.9089 104.722 41.2021 104.927 41.5439C105.133 41.8829 105.275 42.2595 105.352 42.6736H104.285ZM131.785 40.0057V48.5428H130.785L126.133 41.8399H126.049V48.5428H125.016V40.0057H126.016L130.685 46.7254H130.768V40.0057H131.785Z" fill="#15131E"/>
<path d="M132.838 2.69472V2.05623H137.295V2.69472H135.426V8H134.707V2.69472H132.838ZM138.897 2.05623H139.756L141.776 6.99002H141.845L143.865 2.05623H144.724V8H144.051V3.48413H143.993L142.135 8H141.485L139.628 3.48413H139.57V8H138.897V2.05623Z" fill="#15131E"/>
</g>
<defs>
<clipPath id="clip0_1118_2622">
<rect width="146" height="50" fill="white"/>
</clipPath>
</defs>
</svg>
